<svg width="128" height="128" viewBox="0 0 128 128" fill="none" xmlns="http://www.w3.org/2000/svg">
<rect width="128" height="128" rx="28" fill="url(#paint0_linear_109_15)"/>
<rect x="6.5" y="6.5" width="115" height="115" rx="26.5" stroke="white"/>
<circle cx="64" cy="64" r="54.75" stroke="url(#paint1_linear_109_15)" stroke-width="0.5"/>
<circle cx="63.5" cy="63.5" r="46.75" stroke="url(#paint2_linear_109_15)" stroke-width="0.5"/>
<path d="M23.8411 46.5795L23.5601 47.1913L21.5163 46.4276L21.8098 45.7886C21.8981 45.5963 22.0146 45.447 22.1593 45.3407C22.3033 45.2342 22.4682 45.173 22.6541 45.157C22.8392 45.1407 23.0376 45.1722 23.2492 45.2512C23.4621 45.3308 23.6285 45.4361 23.7484 45.5671C23.8676 45.6978 23.9361 45.849 23.954 46.0205C23.9712 46.1918 23.9336 46.3781 23.8411 46.5795ZM23.4508 46.8692L23.6144 46.5129C23.6897 46.349 23.7195 46.201 23.7038 46.0688C23.6881 45.9367 23.6322 45.8216 23.5361 45.7237C23.44 45.6258 23.3088 45.5457 23.1425 45.4836C22.9775 45.4219 22.8234 45.395 22.6803 45.4027C22.5366 45.4103 22.4089 45.4541 22.2973 45.5341C22.1851 45.6139 22.0934 45.7312 22.0222 45.8861L21.8461 46.2695L23.4508 46.8692Z" fill="white" fill-opacity="0.75"/>
<path d="M25.09 44.2169C25.0162 44.3563 24.9209 44.4624 24.8038 44.5352C24.6865 44.6071 24.5559 44.6447 24.4122 44.6483C24.2681 44.6508 24.1195 44.6181 23.9664 44.5499C23.8132 44.4818 23.6926 44.3947 23.6043 44.2887C23.5158 44.1818 23.4644 44.0652 23.4504 43.9387C23.436 43.8113 23.4633 43.6823 23.5324 43.5517C23.5722 43.4764 23.6246 43.4077 23.6894 43.3458C23.7542 43.2839 23.8317 43.2358 23.922 43.2015C24.0116 43.167 24.1136 43.153 24.2279 43.1597C24.3422 43.1663 24.4691 43.2007 24.6086 43.2628L24.7059 43.3061L24.1162 44.4212L23.9177 44.3328L24.3878 43.4438C24.3035 43.4062 24.2196 43.3891 24.1361 43.3923C24.053 43.3948 23.9765 43.4174 23.9067 43.46C23.8372 43.502 23.7812 43.5632 23.7387 43.6435C23.6919 43.7321 23.6741 43.8188 23.6853 43.9036C23.6962 43.9876 23.7286 44.0629 23.7823 44.1295C23.8361 44.196 23.9042 44.2477 23.9866 44.2843L24.119 44.3433C24.2319 44.3935 24.3375 44.4173 24.436 44.4145C24.5341 44.4109 24.6215 44.3843 24.6983 44.3346C24.7743 44.2847 24.8361 44.2149 24.8836 44.1251C24.9145 44.0667 24.9339 44.0102 24.942 43.9556C24.9497 43.9001 24.9455 43.8475 24.9294 43.7976C24.9126 43.7475 24.8832 43.7015 24.8413 43.6595L25.0171 43.4725C25.0804 43.5286 25.1265 43.5961 25.1554 43.6748C25.1836 43.7533 25.1929 43.8389 25.1832 43.9315C25.1728 44.0239 25.1418 44.119 25.09 44.2169Z" fill="white" fill-opacity="0.75"/>
<path d="M25.129 40.8597L26.2731 42.1294L26.142 42.3489L24.3775 42.1183L24.5173 41.8842L25.9078 42.0941L25.9165 42.0794L24.9892 41.0939L25.129 40.8597Z" fill="white" fill-opacity="0.75"/>
<path d="M27.5748 40.2111C27.4871 40.3421 27.3815 40.4374 27.258 40.497C27.1342 40.5557 27.0011 40.5787 26.8585 40.566C26.7157 40.5525 26.5722 40.503 26.4279 40.4177C26.2837 40.3324 26.1735 40.2318 26.0974 40.1159C26.0211 39.9992 25.9827 39.8768 25.9822 39.7488C25.9815 39.6198 26.0222 39.4939 26.1044 39.3712C26.1518 39.3003 26.2108 39.2376 26.2815 39.183C26.3521 39.1284 26.4339 39.0891 26.5269 39.0649C26.6192 39.0405 26.7216 39.038 26.834 39.0575C26.9463 39.077 27.0682 39.1256 27.1997 39.2033L27.2914 39.2575L26.5898 40.3058L26.4028 40.1952L26.9621 39.3594C26.8826 39.3124 26.8014 39.2858 26.7186 39.2796C26.6361 39.2729 26.558 39.2868 26.4844 39.3216C26.4112 39.3557 26.3493 39.4106 26.2988 39.4861C26.2431 39.5694 26.2163 39.654 26.2184 39.7401C26.2203 39.8253 26.2443 39.9041 26.2904 39.9767C26.3365 40.0493 26.3984 40.1086 26.4761 40.1545L26.6008 40.2283C26.7071 40.2912 26.8092 40.3268 26.9068 40.3351C27.0043 40.3425 27.0936 40.3257 27.1748 40.2847C27.2553 40.2434 27.3239 40.1805 27.3804 40.0961C27.4171 40.0412 27.4423 39.9869 27.4561 39.9333C27.4696 39.8787 27.471 39.8255 27.4603 39.7739C27.449 39.7219 27.4249 39.6726 27.3878 39.626L27.5816 39.4588C27.6383 39.522 27.6767 39.5946 27.697 39.6766C27.7166 39.7582 27.7167 39.8448 27.6972 39.9363C27.6772 40.0274 27.6364 40.119 27.5748 40.2111Z" fill="white" fill-opacity="0.75"/>
<path d="M26.8728 37.4113L28.688 38.6218L28.5384 38.8239L26.7232 37.6134L26.8728 37.4113Z" fill="white" fill-opacity="0.75"/>
<path d="M30.2346 36.7334C30.1412 36.8478 30.0311 36.9271 29.9043 36.9714C29.7779 37.0151 29.6444 37.0233 29.5036 36.9959C29.3633 36.968 29.2255 36.9034 29.0902 36.8022C28.9537 36.7 28.8542 36.5869 28.7915 36.4629C28.7292 36.3383 28.705 36.212 28.7187 36.0841C28.733 35.9555 28.7868 35.8341 28.8802 35.7196C28.9736 35.6052 29.0835 35.5261 29.2099 35.4824C29.3367 35.4382 29.4705 35.4302 29.6114 35.4586C29.7527 35.4863 29.8916 35.5513 30.028 35.6534C30.1634 35.7547 30.2619 35.8674 30.3236 35.9916C30.3857 36.1152 30.4096 36.2413 30.3954 36.3698C30.3816 36.4977 30.328 36.6189 30.2346 36.7334ZM30.0538 36.598C30.1248 36.5111 30.1601 36.4223 30.1599 36.3318C30.1596 36.2412 30.133 36.1543 30.08 36.0712C30.0269 35.988 29.9566 35.9137 29.869 35.8482C29.7815 35.7826 29.6889 35.735 29.5912 35.7054C29.4936 35.6757 29.3986 35.6715 29.3061 35.6928C29.2137 35.714 29.132 35.768 29.061 35.855C28.9901 35.9419 28.955 36.0309 28.9558 36.1219C28.9566 36.2129 28.9838 36.3002 29.0374 36.3837C29.0911 36.4673 29.1616 36.5419 29.2492 36.6074C29.3368 36.6729 29.4291 36.7203 29.5261 36.7495C29.6232 36.7787 29.7177 36.7825 29.8095 36.7609C29.9014 36.7392 29.9828 36.685 30.0538 36.598Z" fill="white" fill-opacity="0.75"/>
<path d="M31.8063 35.8204L30.0874 34.3686L30.2504 34.1885L30.4489 34.3562L30.469 34.3341C30.4596 34.3021 30.4491 34.2598 30.4374 34.2071C30.4256 34.1535 30.4272 34.0925 30.442 34.0243C30.4568 33.955 30.5 33.8809 30.5714 33.8019C30.6639 33.6997 30.7717 33.6319 30.8948 33.5984C31.018 33.5649 31.1476 33.5671 31.2837 33.6049C31.4199 33.6428 31.5536 33.7172 31.6849 33.8281C31.8173 33.9399 31.9123 34.0587 31.9699 34.1844C32.0269 34.3097 32.047 34.4335 32.0301 34.5558C32.0127 34.6777 31.9582 34.7892 31.8667 34.8903C31.7962 34.9683 31.7265 35.0195 31.6575 35.0439C31.5879 35.0678 31.5246 35.078 31.4676 35.0744C31.41 35.0704 31.3636 35.0656 31.3284 35.06L31.3141 35.0758L31.975 35.634L31.8063 35.8204ZM30.8783 34.7133C30.9727 34.793 31.0681 34.8499 31.1646 34.884C31.2605 34.9177 31.3522 34.9259 31.4396 34.9086C31.5264 34.8909 31.6037 34.8447 31.6713 34.7699C31.7419 34.6919 31.7795 34.609 31.7844 34.5211C31.7892 34.4323 31.7674 34.3442 31.7191 34.2569C31.6706 34.1686 31.602 34.0869 31.513 34.0118C31.4251 33.9375 31.3339 33.8838 31.2396 33.8505C31.1451 33.8163 31.0535 33.8081 30.9646 33.8259C30.8757 33.8428 30.7954 33.8907 30.724 33.9697C30.6554 34.0456 30.6175 34.126 30.6104 34.2111C30.6028 34.2957 30.6223 34.381 30.669 34.4669C30.7152 34.5523 30.785 34.6345 30.8783 34.7133Z" fill="white" fill-opacity="0.75"/>
<path d="M33.4892 33.2368C33.3777 33.3483 33.2562 33.4204 33.1249 33.4532C32.9935 33.4851 32.8605 33.4795 32.7257 33.4365C32.5908 33.3925 32.4627 33.3128 32.3413 33.1973C32.2198 33.0818 32.1344 32.9584 32.085 32.8271C32.0356 32.6948 32.0238 32.5651 32.0497 32.4378C32.0756 32.3096 32.1408 32.1933 32.2454 32.0889C32.3057 32.0287 32.3755 31.979 32.4549 31.9398C32.5343 31.9007 32.6212 31.8791 32.7158 31.8749C32.8098 31.8703 32.909 31.8897 33.0133 31.933C33.1176 31.9764 33.225 32.0507 33.3357 32.1559L33.4129 32.2293L32.5204 33.1207L32.3629 32.9709L33.0745 32.2602C33.0076 32.1966 32.9348 32.1529 32.8562 32.129C32.7781 32.1047 32.7 32.1019 32.6219 32.1207C32.5443 32.139 32.4733 32.1803 32.409 32.2446C32.3382 32.3153 32.2949 32.3937 32.2791 32.4796C32.2634 32.5646 32.2702 32.6481 32.2997 32.73C32.3292 32.812 32.3766 32.884 32.442 32.9462L32.5469 33.046C32.6365 33.1312 32.7275 33.1884 32.8199 33.2175C32.9123 33.2456 33.0018 33.248 33.0885 33.2246C33.1747 33.2008 33.2537 33.1529 33.3256 33.0812C33.3723 33.0345 33.4078 32.986 33.4321 32.9356C33.4564 32.8842 33.4688 32.8318 33.4691 32.7782C33.469 32.7242 33.4559 32.6701 33.4298 32.6158L33.651 32.4912C33.6926 32.566 33.7147 32.6463 33.7173 32.7321C33.7193 32.8173 33.7016 32.9033 33.664 32.99C33.6259 33.0763 33.5676 33.1585 33.4892 33.2368Z" fill="white" fill-opacity="0.75"/>
<path d="M35.1886 31.6648C35.0874 31.7561 34.9745 31.8116 34.85 31.8312C34.725 31.8503 34.5975 31.8334 34.4675 31.7805C34.337 31.7271 34.2126 31.637 34.0943 31.5104C33.977 31.3847 33.8971 31.256 33.8546 31.1241C33.8121 30.9922 33.8063 30.8658 33.8373 30.745C33.8683 30.6242 33.935 30.5177 34.0372 30.4254C34.1163 30.354 34.1909 30.3105 34.261 30.2951C34.3311 30.2787 34.3936 30.2758 34.4484 30.2867C34.5032 30.2965 34.5472 30.3056 34.5803 30.314L34.5961 30.2997L34.0464 29.711L34.2331 29.5425L35.7221 31.1373L35.5418 31.3L35.3702 31.1163L35.3481 31.1362C35.3547 31.1704 35.3609 31.2155 35.3666 31.2716C35.3718 31.3272 35.3631 31.3891 35.3404 31.4574C35.3173 31.5252 35.2667 31.5943 35.1886 31.6648ZM35.0598 31.4768C35.1347 31.4092 35.18 31.3329 35.1958 31.2479C35.2111 31.1623 35.2002 31.0731 35.1631 30.9803C35.1255 30.887 35.0646 30.7952 34.9802 30.7049C34.8969 30.6156 34.8107 30.5493 34.7219 30.5062C34.6325 30.4625 34.5445 30.4453 34.458 30.4545C34.3709 30.4633 34.2894 30.5019 34.2135 30.5704C34.1344 30.6418 34.0872 30.7213 34.0718 30.8089C34.0564 30.8954 34.0673 30.9846 34.1045 31.0764C34.1417 31.1672 34.1995 31.2547 34.278 31.3388C34.3575 31.4239 34.4429 31.4894 34.5342 31.5351C34.6256 31.5799 34.7165 31.5992 34.807 31.5931C34.8975 31.586 34.9818 31.5473 35.0598 31.4768Z" fill="white" fill-opacity="0.75"/>
<path d="M38.1334 29.2285L37.1496 27.9209L37.3506 27.7698L38.3344 29.0775L38.1334 29.2285ZM37.0879 27.6261C37.0487 27.6556 37.0049 27.6676 36.9564 27.6623C36.9085 27.6565 36.8705 27.6349 36.8423 27.5974C36.8141 27.56 36.8039 27.5175 36.8117 27.4699C36.82 27.4219 36.8437 27.3832 36.8829 27.3537C36.9221 27.3243 36.9656 27.3124 37.0135 27.3182C37.062 27.3235 37.1003 27.3449 37.1285 27.3824C37.1567 27.4199 37.1666 27.4626 37.1583 27.5106C37.1505 27.5582 37.127 27.5967 37.0879 27.6261Z" fill="white" fill-opacity="0.75"/>
<path d="M39.4501 27.0808L39.9977 27.8988L39.7898 28.0403L38.8796 26.6805L39.0804 26.5438L39.2226 26.7563L39.2402 26.7443C39.2257 26.6536 39.2367 26.5654 39.2732 26.4795C39.3093 26.3931 39.3785 26.3151 39.4806 26.2455C39.5722 26.1832 39.665 26.1475 39.759 26.1385C39.8526 26.1289 39.9439 26.1492 40.0331 26.1994C40.1218 26.2489 40.2049 26.3316 40.2823 26.4472L40.8607 27.3113L40.6529 27.4528L40.084 26.6029C40.0124 26.4961 39.9291 26.4316 39.8341 26.4096C39.7386 26.387 39.6427 26.4084 39.5464 26.474C39.4801 26.5191 39.4304 26.574 39.3975 26.6384C39.3652 26.7025 39.3527 26.7725 39.3599 26.8484C39.3671 26.9242 39.3971 27.0017 39.4501 27.0808Z" fill="white" fill-opacity="0.75"/>
<path d="M43.6568 25.6498L43.4137 25.7827L43.1178 23.4585L43.3571 23.3276L45.0588 24.883L44.8158 25.0159L43.4029 23.6958L43.388 23.704L43.6568 25.6498ZM43.3563 24.843L44.3359 24.3072L44.4432 24.5156L43.4636 25.0513L43.3563 24.843Z" fill="white" fill-opacity="0.75"/>
<path d="M45.9642 24.4504L45.3149 22.9484L45.5344 22.8443L45.6358 23.079L45.6551 23.0699C45.6512 22.9751 45.6741 22.8893 45.7236 22.8124C45.7728 22.7348 45.8455 22.6733 45.9418 22.6276C46.0394 22.5814 46.1303 22.5654 46.2145 22.5796C46.2991 22.593 46.3771 22.631 46.4483 22.6939L46.4637 22.6866C46.4681 22.591 46.4982 22.5025 46.5542 22.421C46.6099 22.3388 46.6908 22.2726 46.7966 22.2224C46.9289 22.1597 47.0552 22.1505 47.1756 22.1948C47.2957 22.2384 47.394 22.3485 47.4704 22.5252L47.9049 23.5304L47.6777 23.6381L47.2432 22.6329C47.1953 22.522 47.1312 22.457 47.0509 22.4377C46.9707 22.4184 46.8901 22.4279 46.8092 22.4662C46.7053 22.5155 46.6385 22.5856 46.609 22.6766C46.5793 22.7669 46.5854 22.8606 46.6274 22.9578L47.0501 23.9357L46.819 24.0452L46.3743 23.0164C46.3374 22.931 46.2804 22.8752 46.2033 22.8489C46.1259 22.8219 46.0443 22.8289 45.9583 22.8696C45.8992 22.8976 45.8509 22.9397 45.8134 22.996C45.7765 23.052 45.7546 23.1158 45.7477 23.1874C45.7411 23.2581 45.7537 23.3303 45.7856 23.4039L46.1914 24.3427L45.9642 24.4504Z" fill="white" fill-opacity="0.75"/>
<path d="M48.4523 23.3318L47.8989 21.7919L48.1237 21.6999L48.2073 21.9325L48.2231 21.9261C48.2233 21.8386 48.251 21.7563 48.3063 21.6793C48.3616 21.6022 48.4345 21.5452 48.5253 21.5081C48.5423 21.5011 48.5638 21.4927 48.5897 21.4829C48.6156 21.473 48.6353 21.4661 48.649 21.4621L48.7354 21.7027C48.7268 21.7039 48.7077 21.7083 48.678 21.7158C48.6487 21.7225 48.6186 21.7321 48.5877 21.7447C48.5141 21.7748 48.454 21.8174 48.4074 21.8725C48.3613 21.9266 48.3313 21.988 48.3174 22.0565C48.304 22.1241 48.3098 22.1926 48.3348 22.2621L48.685 23.2366L48.4523 23.3318Z" fill="white" fill-opacity="0.75"/>
<path d="M50.6755 22.4733L50.2065 20.9055L50.4434 20.8215L50.9124 22.3892L50.6755 22.4733ZM50.2488 20.6015C50.2026 20.6179 50.158 20.616 50.115 20.5959C50.0726 20.5756 50.0447 20.543 50.0313 20.498C50.0179 20.4531 50.0228 20.4089 50.046 20.3653C50.0699 20.3214 50.1049 20.2913 50.1511 20.2749C50.1973 20.2585 50.2416 20.2605 50.2839 20.2808C50.327 20.301 50.3552 20.3335 50.3686 20.3784C50.3821 20.4233 50.3768 20.4677 50.3529 20.5115C50.3297 20.5551 50.295 20.5851 50.2488 20.6015Z" fill="white" fill-opacity="0.75"/>
<path d="M52.8917 20.0361L52.9417 20.2432L52.1299 20.4884L52.08 20.2813L52.8917 20.0361ZM52.2246 19.8287L52.4653 19.756L52.831 21.2722C52.8476 21.3412 52.87 21.39 52.898 21.4186C52.9266 21.4463 52.9579 21.4613 52.992 21.4635C53.0266 21.4649 53.0616 21.4603 53.0969 21.4496C53.1235 21.4416 53.1449 21.4337 53.1612 21.4258C53.1774 21.4172 53.1903 21.4103 53.2 21.4052L53.3019 21.6099C53.2871 21.6211 53.2658 21.6342 53.2381 21.6492C53.2105 21.665 53.1743 21.6796 53.1294 21.6931C53.0614 21.7137 52.9912 21.719 52.9188 21.709C52.847 21.6988 52.7824 21.6698 52.7249 21.622C52.6681 21.574 52.6286 21.5037 52.6063 21.4112L52.2246 19.8287Z" fill="white" fill-opacity="0.75"/>
<path d="M55.7691 19.6642L55.5612 19.7812C55.5407 19.7476 55.5139 19.7166 55.4807 19.6883C55.448 19.6591 55.4069 19.6386 55.3572 19.6267C55.3075 19.6149 55.2471 19.6177 55.1761 19.6353C55.0789 19.6592 55.002 19.7019 54.9454 19.7633C54.8893 19.8239 54.8675 19.8888 54.88 19.9579C54.8912 20.0194 54.922 20.0626 54.9726 20.0873C55.0232 20.1121 55.0975 20.1248 55.1956 20.1254L55.442 20.126C55.5904 20.1259 55.7059 20.1533 55.7885 20.2081C55.8711 20.2622 55.9225 20.3455 55.9428 20.458C55.9595 20.5503 55.9482 20.6392 55.9089 20.7248C55.8704 20.8103 55.8083 20.8854 55.7228 20.9503C55.6373 21.0152 55.5328 21.0629 55.4094 21.0933C55.2473 21.1333 55.1068 21.1307 54.9877 21.0856C54.8686 21.0405 54.7826 20.953 54.7295 20.8229L54.9506 20.7071C54.9883 20.7883 55.0418 20.843 55.111 20.8712C55.1809 20.8993 55.2659 20.9009 55.3658 20.8763C55.4796 20.8482 55.5655 20.8015 55.6236 20.7361C55.6822 20.6698 55.7052 20.602 55.6927 20.5329C55.6826 20.4769 55.6549 20.4349 55.6094 20.4067C55.5639 20.3777 55.4994 20.3637 55.416 20.3646L55.1398 20.367C54.988 20.3679 54.8713 20.3401 54.7898 20.2835C54.7088 20.2261 54.6583 20.1418 54.6382 20.0307C54.6218 19.9399 54.6324 19.8533 54.6701 19.771C54.7085 19.6885 54.7679 19.6165 54.8483 19.5551C54.9294 19.4935 55.0258 19.4489 55.1375 19.4214C55.2947 19.3826 55.4244 19.3871 55.5267 19.4349C55.6297 19.4825 55.7105 19.559 55.7691 19.6642Z" fill="white" fill-opacity="0.75"/>
<path d="M57.6458 20.6163C57.544 20.6359 57.4492 20.6342 57.3615 20.6114C57.2737 20.5879 57.2009 20.5438 57.143 20.4792C57.0851 20.4138 57.0497 20.3283 57.0367 20.2225C57.0254 20.1295 57.0343 20.0505 57.0635 19.9858C57.0927 19.9203 57.1356 19.8651 57.1922 19.8203C57.2488 19.7755 57.3128 19.738 57.384 19.7077C57.4559 19.6766 57.5285 19.6489 57.602 19.6247C57.6981 19.5932 57.7761 19.5685 57.836 19.5505C57.8965 19.5316 57.9397 19.5114 57.9656 19.4899C57.9922 19.4681 58.0031 19.4372 57.9982 19.397L57.9972 19.3885C57.9844 19.2842 57.9463 19.2086 57.8827 19.1616C57.8199 19.1145 57.7316 19.1019 57.6179 19.1238C57.5001 19.1464 57.4108 19.1903 57.3502 19.2553C57.2897 19.3203 57.2494 19.3851 57.2294 19.4495L56.9847 19.41C57.0145 19.3032 57.061 19.2157 57.124 19.1473C57.1876 19.078 57.2596 19.0245 57.34 18.9867C57.4209 18.9481 57.5018 18.921 57.5827 18.9054C57.6344 18.8955 57.6944 18.8904 57.7629 18.8903C57.832 18.8892 57.9003 18.9017 57.9677 18.9277C58.0358 18.9536 58.0955 19.0009 58.1467 19.0697C58.1979 19.1385 58.2314 19.2375 58.2472 19.3665L58.3777 20.4367L58.1308 20.4841L58.104 20.2642L58.0914 20.2666C58.079 20.305 58.0557 20.3481 58.0215 20.3958C57.9874 20.4435 57.9396 20.4877 57.8782 20.5284C57.8168 20.569 57.7393 20.5983 57.6458 20.6163ZM57.6562 20.3849C57.7538 20.3661 57.8337 20.3309 57.896 20.2793C57.9589 20.2275 58.0037 20.1676 58.0304 20.0997C58.0578 20.0317 58.0673 19.9638 58.0591 19.8961L58.0312 19.6677C58.0223 19.6824 58.0007 19.6985 57.9664 19.7159C57.9328 19.7325 57.8934 19.7491 57.8483 19.7657C57.8038 19.7814 57.7603 19.7963 57.7178 19.8102C57.6758 19.8233 57.6418 19.8342 57.6157 19.8428C57.5526 19.8636 57.4943 19.8889 57.4408 19.9187C57.388 19.9476 57.3467 19.984 57.3171 20.0279C57.2881 20.071 57.2775 20.1243 57.2852 20.1878C57.2958 20.2745 57.3355 20.3339 57.4044 20.3662C57.4739 20.3975 57.5578 20.4038 57.6562 20.3849Z" fill="white" fill-opacity="0.75"/>
<path d="M59.4834 20.2678L59.378 18.6348L59.6186 18.6015L59.6345 18.8481L59.6514 18.8458C59.6757 18.7609 59.725 18.6879 59.7991 18.6269C59.8733 18.5658 59.9589 18.5286 60.056 18.5151C60.0742 18.5126 60.0971 18.5098 60.1246 18.5067C60.1521 18.5036 60.1729 18.5018 60.1871 18.5013L60.2035 18.7564C60.195 18.7555 60.1754 18.7549 60.1449 18.7549C60.115 18.754 60.0836 18.7559 60.0505 18.7605C59.9717 18.7714 59.9024 18.7978 59.8427 18.8397C59.7836 18.8807 59.7379 18.9328 59.7058 18.9959C59.6743 19.0582 59.661 19.1262 59.6657 19.1999L59.7324 20.2333L59.4834 20.2678Z" fill="white" fill-opacity="0.75"/>
<rect x="13.8536" y="68.601" width="17.5475" height="48.2283" rx="8.77377" transform="rotate(-45 13.8536 68.601)" fill="url(#paint3_linear_109_15)" fill-opacity="0.8" stroke="url(#paint4_linear_109_15)" stroke-width="0.5"/>
<rect x="35.6182" y="90.3656" width="44.6188" height="17.5475" rx="8.77377" transform="rotate(-45 35.6182 90.3656)" fill="url(#paint5_linear_109_15)" fill-opacity="0.8" stroke="url(#paint6_linear_109_15)" stroke-width="0.5"/>
<rect x="54.9106" y="71.0732" width="46.8054" height="17.5475" rx="8.77377" transform="rotate(-45 54.9106 71.0732)" fill="url(#paint7_linear_109_15)" fill-opacity="0.8" stroke="url(#paint8_linear_109_15)" stroke-width="0.5"/>
<rect x="75.081" y="50.9028" width="36.9923" height="17.5475" rx="8.77377" transform="rotate(-45 75.081 50.9028)" fill="url(#paint9_linear_109_15)" fill-opacity="0.8" stroke="url(#paint10_linear_109_15)" stroke-width="0.5"/>
<defs>
<linearGradient id="paint0_linear_109_15" x1="64" y1="0" x2="64" y2="128" gradientUnits="userSpaceOnUse">
<stop stop-color="#5EC6F5"/>
<stop offset="1" stop-color="#007AFF"/>
</linearGradient>
<linearGradient id="paint1_linear_109_15" x1="64" y1="9" x2="64" y2="119" gradientUnits="userSpaceOnUse">
<stop stop-color="white"/>
<stop offset="0.5" stop-color="white" stop-opacity="0.47"/>
<stop offset="1" stop-color="white" stop-opacity="0.79"/>
</linearGradient>
<linearGradient id="paint2_linear_109_15" x1="63.5" y1="17" x2="63.5" y2="110" gradientUnits="userSpaceOnUse">
<stop stop-color="white"/>
<stop offset="0.5" stop-color="white" stop-opacity="0.47"/>
<stop offset="1" stop-color="white" stop-opacity="0.79"/>
</linearGradient>
<linearGradient id="paint3_linear_109_15" x1="22.5238" y1="68.601" x2="22.5238" y2="117.329" gradientUnits="userSpaceOnUse">
<stop stop-color="white"/>
<stop offset="1" stop-color="white" stop-opacity="0.6"/>
</linearGradient>
<linearGradient id="paint4_linear_109_15" x1="22.5238" y1="68.601" x2="22.5238" y2="117.329" gradientUnits="userSpaceOnUse">
<stop stop-color="white"/>
<stop offset="1" stop-color="white" stop-opacity="0.3"/>
</linearGradient>
<linearGradient id="paint5_linear_109_15" x1="80.563" y1="100.428" x2="35.2596" y2="100.428" gradientUnits="userSpaceOnUse">
<stop stop-color="white"/>
<stop offset="1" stop-color="white" stop-opacity="0.6"/>
</linearGradient>
<linearGradient id="paint6_linear_109_15" x1="80.2373" y1="99.4659" x2="35.336" y2="99.8194" gradientUnits="userSpaceOnUse">
<stop stop-color="white"/>
<stop offset="1" stop-color="white" stop-opacity="0.3"/>
</linearGradient>
<linearGradient id="paint7_linear_109_15" x1="94.9044" y1="82.4115" x2="54.7056" y2="80.4973" gradientUnits="userSpaceOnUse">
<stop stop-color="white"/>
<stop offset="1" stop-color="white" stop-opacity="0.6"/>
</linearGradient>
<linearGradient id="paint8_linear_109_15" x1="101.945" y1="79.4664" x2="54.5685" y2="80.1735" gradientUnits="userSpaceOnUse">
<stop stop-color="white"/>
<stop offset="1" stop-color="white" stop-opacity="0.3"/>
</linearGradient>
<linearGradient id="paint9_linear_109_15" x1="112.392" y1="59.3698" x2="75.0642" y2="59.6888" gradientUnits="userSpaceOnUse">
<stop stop-color="white"/>
<stop offset="1" stop-color="white" stop-opacity="0.6"/>
</linearGradient>
<linearGradient id="paint10_linear_109_15" x1="111.975" y1="60.7102" x2="74.4978" y2="60.0031" gradientUnits="userSpaceOnUse">
<stop stop-color="white"/>
<stop offset="1" stop-color="white" stop-opacity="0.3"/>
</linearGradient>
</defs>
</svg>
